<?xml version="1.0" encoding="UTF-8"?>
<svg xmlns="http://www.w3.org/2000/svg" version="1.1" viewBox="0 0 120 40">
  <defs>
    <style>
      .cls-1 {
        fill: #ea4335;
      }

      .cls-2, .cls-3 {
        fill: #fff;
      }

      .cls-4 {
        fill: #a6a6a6;
      }

      .cls-5 {
        fill: #fbbc04;
      }

      .cls-6 {
        fill: #4285f4;
      }

      .cls-7 {
        fill: #34a853;
      }

      .cls-3 {
        stroke: #fff;
        stroke-miterlimit: 10;
        stroke-width: .2px;
      }
    </style>
  </defs>
  <!-- Generator: Adobe Illustrator 28.7.1, SVG Export Plug-In . SVG Version: 1.2.0 Build 142)  -->
  <g>
    <g id="artwork">
      <g>
        <g>
          <path class="cls-4" d="M110.3,0H9.7C9.3,0,9,0,8.6,0c-.3,0-.6,0-.9,0-.7,0-1.3,0-2,.2-.7.1-1.3.3-1.9.6-.6.3-1.1.7-1.6,1.2-.5.5-.9,1-1.2,1.6-.3.6-.5,1.2-.6,1.9-.1.7-.2,1.3-.2,2,0,.3,0,.6,0,.9v23.1c0,.3,0,.6,0,.9,0,.7,0,1.3.2,2,.1.7.3,1.3.6,1.9.3.6.7,1.1,1.2,1.6.5.5,1,.9,1.6,1.2.6.3,1.2.5,1.9.6.7.1,1.3.2,2,.2.3,0,.6,0,.9,0,.4,0,.7,0,1.1,0h100.6c.4,0,.7,0,1.1,0,.3,0,.6,0,.9,0,.7,0,1.3,0,2-.2.7-.1,1.3-.3,1.9-.6.6-.3,1.1-.7,1.6-1.2.5-.5.9-1,1.2-1.6.3-.6.5-1.2.6-1.9.1-.7.2-1.3.2-2,0-.3,0-.6,0-.9,0-.4,0-.7,0-1.1V9.5c0-.4,0-.7,0-1.1,0-.3,0-.6,0-.9,0-.7,0-1.3-.2-2-.1-.7-.3-1.3-.6-1.9-.6-1.2-1.6-2.2-2.8-2.8-.6-.3-1.2-.5-1.9-.6-.7-.1-1.3-.2-2-.2-.3,0-.6,0-.9,0-.4,0-.7,0-1.1,0h0Z"/>
          <path d="M8.6,39.1c-.3,0-.6,0-.9,0-.6,0-1.3,0-1.9-.2-.6,0-1.1-.3-1.7-.5-.5-.3-1-.6-1.4-1-.4-.4-.8-.9-1-1.4-.3-.5-.4-1.1-.5-1.7-.1-.6-.2-1.2-.2-1.9,0-.2,0-.9,0-.9V8.4s0-.7,0-.9c0-.6,0-1.3.2-1.9,0-.6.3-1.1.5-1.7.3-.5.6-1,1-1.4.4-.4.9-.8,1.4-1,.5-.3,1.1-.4,1.7-.5.6-.1,1.2-.2,1.9-.2h.9s102.8,0,102.8,0h.9c.6,0,1.2,0,1.9.2.6,0,1.1.3,1.7.5,1,.5,1.9,1.4,2.4,2.4.3.5.4,1.1.5,1.6.1.6.2,1.3.2,1.9,0,.3,0,.6,0,.9,0,.4,0,.7,0,1.1v20.9c0,.4,0,.7,0,1.1,0,.3,0,.6,0,.9,0,.6,0,1.2-.2,1.9,0,.6-.3,1.1-.5,1.7-.3.5-.6,1-1,1.4-.4.4-.9.8-1.4,1-.5.3-1.1.5-1.7.5-.6.1-1.2.2-1.9.2-.3,0-.6,0-.9,0h-1.1s-101.7,0-101.7,0Z"/>
        </g>
        <g>
          <path class="cls-3" d="M42.1,11.3c0,.7-.2,1.3-.7,1.8-.5.5-1.2.8-2,.8s-1.4-.3-2-.8c-.5-.5-.8-1.2-.8-2s.3-1.5.8-2c.5-.5,1.2-.8,2-.8s.7,0,1.1.2c.3.1.6.3.8.6l-.5.5c-.4-.4-.8-.6-1.5-.6s-1,.2-1.5.6c-.4.4-.6.9-.6,1.5s.2,1.1.6,1.5c.4.4.9.6,1.5.6s1.1-.2,1.5-.6c.3-.3.4-.6.4-1.1h-1.9v-.6h2.6c0,.1,0,.3,0,.4Z"/>
          <path class="cls-3" d="M46.2,9.1h-2.4v1.7h2.2v.6h-2.2v1.7h2.4v.7h-3.1v-5.3h3.1v.7Z"/>
          <path class="cls-3" d="M49.1,13.8h-.7v-4.7h-1.5v-.7h3.7v.7h-1.5v4.7Z"/>
          <path class="cls-3" d="M53.3,13.8v-5.3h.7v5.3h-.7Z"/>
          <path class="cls-3" d="M57,13.8h-.7v-4.7h-1.5v-.7h3.7v.7h-1.5v4.7Z"/>
          <path class="cls-3" d="M65.4,13.1c-.5.5-1.2.8-2,.8s-1.4-.3-2-.8c-.5-.5-.8-1.2-.8-2s.3-1.4.8-2c.5-.5,1.2-.8,2-.8s1.4.3,2,.8c.5.5.8,1.2.8,2s-.3,1.4-.8,2ZM62,12.6c.4.4.9.6,1.4.6s1.1-.2,1.4-.6c.4-.4.6-.9.6-1.5s-.2-1.1-.6-1.5c-.4-.4-.9-.6-1.4-.6s-1.1.2-1.4.6c-.4.4-.6.9-.6,1.5s.2,1.1.6,1.5Z"/>
          <path class="cls-3" d="M67.2,13.8v-5.3h.8l2.6,4.1h0v-1s0-3.1,0-3.1h.7v5.3h-.7l-2.7-4.3h0v1s0,3.3,0,3.3h-.7Z"/>
        </g>
        <path class="cls-2" d="M60.6,21.6c-2.1,0-3.8,1.6-3.8,3.8s1.7,3.8,3.8,3.8,3.8-1.6,3.8-3.8-1.7-3.8-3.8-3.8ZM60.6,27.6c-1.1,0-2.1-.9-2.1-2.3s1-2.3,2.1-2.3,2.1.9,2.1,2.3-1,2.3-2.1,2.3ZM52.3,21.6c-2.1,0-3.8,1.6-3.8,3.8s1.7,3.8,3.8,3.8,3.8-1.6,3.8-3.8-1.7-3.8-3.8-3.8ZM52.3,27.6c-1.1,0-2.1-.9-2.1-2.3s1-2.3,2.1-2.3,2.1.9,2.1,2.3-1,2.3-2.1,2.3ZM42.4,22.7v1.6h3.8c-.1.9-.4,1.6-.9,2s-1.4,1.2-3,1.2c-2.4,0-4.2-1.9-4.2-4.3s1.8-4.3,4.2-4.3,2.2.5,2.9,1.1l1.1-1.1c-1-.9-2.2-1.6-4-1.6-3.2,0-6,2.6-6,5.9s2.7,5.9,6,5.9,3.1-.6,4.1-1.6c1.1-1.1,1.4-2.5,1.4-3.8s0-.7,0-1h-5.4ZM82.7,24c-.3-.8-1.3-2.4-3.2-2.4s-3.6,1.5-3.6,3.8,1.6,3.8,3.8,3.8,2.7-1.1,3.2-1.7l-1.3-.9c-.4.6-1,1-1.9,1s-1.4-.4-1.8-1.1l5.1-2.1-.2-.4ZM77.6,25.2c0-1.5,1.1-2.2,2-2.2s1.2.3,1.4.8l-3.4,1.4ZM73.4,28.9h1.7v-11.1h-1.7v11.1ZM70.7,22.4h0c-.4-.4-1.1-.8-2-.8-1.9,0-3.6,1.7-3.6,3.8s1.7,3.8,3.6,3.8,1.6-.4,2-.9h0v.5c0,1.4-.8,2.2-2,2.2s-1.6-.7-1.9-1.3l-1.4.6c.4,1,1.5,2.2,3.4,2.2s3.6-1.1,3.6-3.9v-6.8h-1.6v.6ZM68.8,27.6c-1.1,0-2.1-1-2.1-2.3s1-2.3,2.1-2.3,2,1,2,2.3-.9,2.3-2,2.3ZM90.5,17.8h-4v11.1h1.7v-4.2h2.3c1.8,0,3.6-1.3,3.6-3.5s-1.8-3.5-3.6-3.5ZM90.5,23.1h-2.4v-3.8h2.4c1.2,0,1.9,1,1.9,1.9s-.7,1.9-1.9,1.9ZM100.8,21.5c-1.2,0-2.4.5-3,1.7l1.5.6c.3-.6.9-.8,1.5-.8s1.7.5,1.7,1.4h0c-.3,0-.9-.3-1.7-.3-1.6,0-3.2.9-3.2,2.5s1.3,2.4,2.8,2.4,1.7-.5,2.1-1.1h0v.9h1.6v-4.3c0-2-1.5-3.1-3.4-3.1ZM100.6,27.6c-.5,0-1.3-.3-1.3-.9s.9-1.2,1.8-1.2,1.1.2,1.5.4c-.1,1-1,1.8-2,1.8ZM110,21.8l-1.9,4.8h0l-2-4.8h-1.8l3,6.7-1.7,3.7h1.7l4.6-10.5h-1.8ZM95.1,28.9h1.7v-11.1h-1.7v11.1Z"/>
        <g>
          <path class="cls-1" d="M18.4,19.5l-9.5,10s0,0,0,0c.3,1.1,1.3,1.9,2.5,1.9s.9-.1,1.3-.4h0s10.7-6.2,10.7-6.2l-5-5.4Z"/>
          <path class="cls-5" d="M28,17.8h0s-4.6-2.7-4.6-2.7l-5.2,4.6,5.2,5.2,4.6-2.6c.8-.4,1.3-1.3,1.3-2.3s-.5-1.8-1.3-2.2Z"/>
          <path class="cls-6" d="M9,10.5c0,.2,0,.4,0,.7v17.7c0,.2,0,.4,0,.7l9.8-9.8-9.8-9.3Z"/>
          <path class="cls-7" d="M18.5,20l4.9-4.9-10.6-6.2c-.4-.2-.8-.4-1.3-.4-1.2,0-2.2.8-2.5,1.9,0,0,0,0,0,0l9.5,9.5Z"/>
        </g>
      </g>
    </g>
  </g>
</svg>