<?xml version="1.0" encoding="UTF-8"?>
<svg xmlns="http://www.w3.org/2000/svg" version="1.1" viewBox="0 0 547.8 237.2">
	<!-- Generator: Adobe Illustrator 28.7.1, SVG Export Plug-In . SVG Version: 1.2.0 Build 142)  -->
	<g fill="#cbd5e1">
		<path
			d="M274,0c72.5,0,145,0,217.5,0,29.1,0,51.8,18.9,55.9,47.5,1.1,7.7.1,16.1-1.8,23.7-10.5,41.1-21.5,82.1-32.4,123.2-7.2,26.9-27.8,42.8-55.5,42.8-122.2,0-244.3,0-366.5,0-28.8,0-49.1-15.6-56.5-43.4C23.8,153,12.9,112.1,2.2,71.2-7.8,33.4,17.9,0,57,0c72.3,0,144.7,0,217,0ZM274,10c-72.7,0-145.3,0-218,0-31.3,0-52.3,27.2-44.4,57.4,10.9,41.7,21.9,83.4,33,125.1,5.8,21.8,22.8,34.7,45.5,34.7,122.3,0,244.7,0,367,0,23.6,0,40.3-12.6,46.4-35.5,11.1-41.5,22.1-83,32.7-124.6,1.6-6.1,2.1-13,1-19.2-3.7-22.9-22.1-37.8-45.8-37.8-72.5,0-145,0-217.5,0Z" />
		<g>
			<rect x="91.8" y="64.1" width="14.2" height="9.9" rx="5" ry="5" />
			<rect x="141.8" y="64.1" width="14.2" height="9.9" rx="5" ry="5" />
			<rect x="191.8" y="64.1" width="14.2" height="9.9" rx="5" ry="5" />
			<rect x="241.8" y="64.1" width="14.2" height="9.9" rx="5" ry="5" />
			<rect x="291.8" y="64.1" width="14.2" height="9.9" rx="5" ry="5" />
			<rect x="341.8" y="64.1" width="14.2" height="9.9" rx="5" ry="5" />
			<rect x="391.8" y="64.1" width="14.2" height="9.9" rx="5" ry="5" />
			<rect x="441.8" y="64.1" width="14.2" height="9.9" rx="5" ry="5" />
		</g>
		<g>
			<rect x="91.8" y="163.3" width="14.2" height="9.9" rx="5" ry="5" />
			<rect x="141.8" y="163.3" width="14.2" height="9.9" rx="5" ry="5" />
			<rect x="191.8" y="163.3" width="14.2" height="9.9" rx="5" ry="5" />
			<rect x="241.8" y="163.3" width="14.2" height="9.9" rx="5" ry="5" />
			<rect x="291.8" y="163.3" width="14.2" height="9.9" rx="5" ry="5" />
			<rect x="341.8" y="163.3" width="14.2" height="9.9" rx="5" ry="5" />
			<rect x="391.8" y="163.3" width="14.2" height="9.9" rx="5" ry="5" />
			<rect x="441.8" y="163.3" width="14.2" height="9.9" rx="5" ry="5" />
		</g>
		<rect x="92.5" y="111.5" width="362.8" height="14.2" rx="7.1" ry="7.1" />
	</g>
</svg>